<?xml version="1.0" encoding="UTF-8" standalone="no"?>
<!DOCTYPE svg PUBLIC "-//W3C//DTD SVG 1.1//EN" "http://www.w3.org/Graphics/SVG/1.1/DTD/svg11.dtd">
<svg xmlns="http://www.w3.org/2000/svg" version="1.1" viewBox="0.00 0.00 270.00 270.00">
<path fill="#ffffff" d="
  M 129.89 84.47
  C 121.08 87.67 115.64 95.73 116.11 105.26
  Q 116.16 106.39 115.10 106.78
  L 101.50 111.73
  A 0.32 0.31 -9.6 0 1 101.07 111.43
  C 101.11 106.69 100.85 101.78 101.73 97.07
  C 104.86 80.29 119.90 70.60 136.52 71.14
  Q 154.21 71.72 163.44 86.57
  Q 163.76 87.08 163.98 88.16
  C 164.51 90.70 161.77 91.98 159.78 90.70
  C 151.08 85.07 140.20 80.73 129.89 84.47
  Z"
/>
<path fill="#ffffff" d="
  M 116.06 119.24
  Q 115.88 122.86 116.33 126.22
  C 118.15 139.64 131.71 144.44 143.60 141.75
  Q 152.10 139.81 160.10 134.95
  Q 161.95 133.82 163.87 134.53
  Q 164.51 134.76 164.68 135.42
  Q 165.09 137.02 164.28 138.53
  Q 157.51 151.20 143.40 153.47
  Q 130.93 155.48 120.60 152.11
  C 108.99 148.32 101.58 136.90 101.19 124.73
  Q 101.05 120.53 101.11 116.15
  Q 101.12 115.65 101.53 115.38
  C 105.65 112.60 110.74 110.65 115.44 109.09
  C 124.45 106.11 133.09 104.08 142.49 105.56
  Q 145.37 106.01 147.77 107.45
  C 150.00 108.80 150.43 111.87 147.94 113.20
  Q 144.08 115.28 139.37 115.74
  C 131.73 116.48 123.83 116.55 116.62 118.54
  Q 116.09 118.69 116.06 119.24
  Z"
/>
</svg>
